<svg width="48" height="48" viewBox="0 0 48 48" fill="none" xmlns="http://www.w3.org/2000/svg">
<g id="Iconsax/Linear/calculator">
<path id="Vector" d="M20 44H28C38 44 42 40 42 30V18C42 8 38 4 28 4H20C10 4 6 8 6 18V30C6 40 10 44 20 44Z" stroke="#00C2FF" stroke-width="3" stroke-linecap="round" stroke-linejoin="round"/>
<path id="Vector_2" d="M33 15.1602V17.1602C33 18.8002 31.66 20.1602 30 20.1602H18C16.36 20.1602 15 18.8202 15 17.1602V15.1602C15 13.5202 16.34 12.1602 18 12.1602H30C31.66 12.1602 33 13.5002 33 15.1602Z" stroke="#00C2FF" stroke-width="3" stroke-linecap="round" stroke-linejoin="round"/>
<path id="Vector_3" d="M16.2734 28H16.2974M23.9914 28H24.0154M31.7094 28H31.7334M16.2734 35H16.2974M23.9914 35H24.0154M31.7094 35H31.7334" stroke="#00C2FF" stroke-width="4" stroke-linecap="round" stroke-linejoin="round"/>
</g>
</svg>
