<svg width="48" height="48" viewBox="0 0 48 48" fill="none" xmlns="http://www.w3.org/2000/svg">
<g id="Iconsax/Linear/documentcopy">
<path id="Vector" d="M34.002 26.8V32.8C34.002 40.8 30.802 44 22.802 44H15.202C7.20196 44 4.00195 40.8 4.00195 32.8V25.2C4.00195 17.2 7.20196 14 15.202 14H21.202" stroke="#00C2FF" stroke-width="3" stroke-linecap="round" stroke-linejoin="round"/>
<path id="Vector_2" d="M23.2039 4H31.2039M14.0039 10C14.0039 6.68 16.6839 4 20.0039 4H25.2439M44.0039 16V28.38C44.0039 31.48 41.4839 34 38.3839 34M44.0039 16H38.0039C33.5039 16 32.0039 14.5 32.0039 10V4L44.0039 16ZM34.0039 26.8H27.6039C22.8039 26.8 21.2039 25.2 21.2039 20.4V14L34.0039 26.8Z" stroke="#00C2FF" stroke-width="3" stroke-linecap="round" stroke-linejoin="round"/>
</g>
</svg>
