<svg width="48" height="48" viewBox="0 0 48 48" fill="none" xmlns="http://www.w3.org/2000/svg">
<g id="Iconsax/Linear/dollarsquare">
<path id="Vector" d="M17.3438 28.66C17.3438 31.24 19.3238 33.32 21.7838 33.32H26.8038C28.9438 33.32 30.6838 31.5 30.6838 29.26C30.6838 26.82 29.6238 25.96 28.0438 25.4L19.9837 22.6C18.4037 22.04 17.3438 21.18 17.3438 18.74C17.3438 16.5 19.0838 14.68 21.2238 14.68H26.2437C28.7037 14.68 30.6838 16.76 30.6838 19.34M23.9998 12V36" stroke="#00C2FF" stroke-width="3" stroke-linecap="round" stroke-linejoin="round"/>
<path id="Vector_2" d="M30 44H18C8 44 4 40 4 30V18C4 8 8 4 18 4H30C40 4 44 8 44 18V30C44 40 40 44 30 44Z" stroke="#00C2FF" stroke-width="3" stroke-linecap="round" stroke-linejoin="round"/>
</g>
</svg>
