<svg width="48" height="48" viewBox="0 0 48 48" fill="none" xmlns="http://www.w3.org/2000/svg">
<g id="Iconsax/Linear/homehashtag">
<path id="Vector" d="M18.0381 5.68032L7.25805 14.0803C5.45805 15.4803 3.99805 18.4603 3.99805 20.7203V35.5403C3.99805 40.1803 7.77805 43.9803 12.4181 43.9803H35.5781C40.2181 43.9803 43.9981 40.1803 43.9981 35.5603V21.0003C43.9981 18.5803 42.3781 15.4803 40.3981 14.1003L28.0381 5.44032C25.2381 3.48033 20.7381 3.58033 18.0381 5.68032Z" stroke="#00C2FF" stroke-width="3" stroke-linecap="round" stroke-linejoin="round"/>
<path id="Vector_2" d="M24.002 18V36M15.002 27H33.002M21.002 36H27.002C30.302 36 33.002 33.3 33.002 30V24C33.002 20.7 30.302 18 27.002 18H21.002C17.702 18 15.002 20.7 15.002 24V30C15.002 33.3 17.702 36 21.002 36Z" stroke="#00C2FF" stroke-width="3" stroke-linecap="round" stroke-linejoin="round"/>
</g>
</svg>
