<svg width="48" height="48" viewBox="0 0 48 48" fill="none" xmlns="http://www.w3.org/2000/svg">
<g id="Iconsax/Linear/profilecircle">
<path id="Vector" d="M24.2395 25.56C24.0802 25.54 23.9189 25.54 23.7595 25.56C22.0634 25.5029 20.4559 24.7887 19.2766 23.5684C18.0973 22.348 17.4386 20.717 17.4395 19.02C17.4395 15.4 20.3595 12.46 23.9995 12.46C25.7184 12.457 27.3696 13.1296 28.5972 14.3328C29.8247 15.536 30.5303 17.1734 30.5618 18.8919C30.5933 20.6105 29.9482 22.2727 28.7655 23.52C27.5828 24.7674 25.9574 25.5 24.2395 25.56ZM37.4795 38.76C33.8041 42.1381 28.9916 44.0088 23.9995 44C18.7995 44 14.0795 42.02 10.5195 38.76C10.7195 36.88 11.9195 35.04 14.0595 33.6C19.5395 29.96 28.4995 29.96 33.9395 33.6C36.0795 35.04 37.2795 36.88 37.4795 38.76Z" stroke="#00C2FF" stroke-width="3" stroke-linecap="round" stroke-linejoin="round"/>
<path id="Vector_2" d="M24 44C35.046 44 44 35.046 44 24C44 12.954 35.046 4 24 4C12.954 4 4 12.954 4 24C4 35.046 12.954 44 24 44Z" stroke="#00C2FF" stroke-width="3" stroke-linecap="round" stroke-linejoin="round"/>
</g>
</svg>
