<svg width="48" height="48" viewBox="0 0 48 48" fill="none" xmlns="http://www.w3.org/2000/svg">
<g id="Iconsax/Linear/profile2user">
<path id="Vector" d="M32.8214 8.00047C36.7014 8.00047 39.8214 11.1405 39.8214 15.0005C39.8214 18.7805 36.8214 21.8605 33.0814 22.0005C32.9087 21.9805 32.7342 21.9805 32.5614 22.0005M36.6814 40.0005C38.1214 39.7005 39.4814 39.1205 40.6014 38.2605C43.7214 35.9205 43.7214 32.0605 40.6014 29.7205C39.5014 28.8805 38.1614 28.3205 36.7414 28.0005M18.3214 21.7405C18.1214 21.7205 17.8814 21.7205 17.6614 21.7405C15.3658 21.6625 13.1907 20.6941 11.5967 19.0404C10.0026 17.3866 9.11489 15.1774 9.12141 12.8805C9.12141 7.98047 13.0814 4.00047 18.0014 4.00047C20.3539 3.95803 22.6269 4.85185 24.3203 6.48529C26.0138 8.11874 26.989 10.358 27.0314 12.7105C27.0738 15.0629 26.18 17.3359 24.5466 19.0294C22.9131 20.7228 20.6739 21.698 18.3214 21.7405ZM8.32141 29.1205C3.48141 32.3605 3.48141 37.6405 8.32141 40.8605C13.8214 44.5405 22.8414 44.5405 28.3414 40.8605C33.1814 37.6205 33.1814 32.3405 28.3414 29.1205C22.8614 25.4605 13.8414 25.4605 8.32141 29.1205Z" stroke="#00C2FF" stroke-width="3" stroke-linecap="round" stroke-linejoin="round"/>
</g>
</svg>
