<svg width="48" height="48" viewBox="0 0 48 48" fill="none" xmlns="http://www.w3.org/2000/svg">
<g id="Iconsax/Linear/receiptsearch">
<path id="Vector" d="M41 22.6V14.08C41 6.02 39.12 4 31.56 4H16.44C8.88 4 7 6.02 7 14.08V36.6C7 41.92 9.92 43.18 13.46 39.38L13.48 39.36C15.12 37.62 17.62 37.76 19.04 39.66L21.06 42.36" stroke="#00C2FF" stroke-width="3" stroke-linecap="round" stroke-linejoin="round"/>
<path id="Vector_2" d="M44 44L42 42M16 14H32M18 22H30M36.4 42.8C38.0974 42.8 39.7253 42.1257 40.9255 40.9255C42.1257 39.7253 42.8 38.0974 42.8 36.4C42.8 34.7026 42.1257 33.0748 40.9255 31.8745C39.7253 30.6743 38.0974 30 36.4 30C34.7026 30 33.0748 30.6743 31.8745 31.8745C30.6743 33.0748 30 34.7026 30 36.4C30 38.0974 30.6743 39.7253 31.8745 40.9255C33.0748 42.1257 34.7026 42.8 36.4 42.8Z" stroke="#00C2FF" stroke-width="3" stroke-linecap="round" stroke-linejoin="round"/>
</g>
</svg>
