<svg width="48" height="48" viewBox="0 0 48 48" fill="none" xmlns="http://www.w3.org/2000/svg">
<g id="Iconsax/Linear/refreshcircle">
<path id="Vector" d="M24.002 44C35.048 44 44.002 35.046 44.002 24C44.002 12.954 35.048 4 24.002 4C12.956 4 4.00195 12.954 4.00195 24C4.00195 35.046 12.956 44 24.002 44Z" stroke="#00C2FF" stroke-width="3" stroke-linecap="round" stroke-linejoin="round"/>
<path id="Vector_2" d="M16.0216 29.0204C16.3816 29.6204 16.8216 30.1804 17.3216 30.6804C19.0955 32.4479 21.4975 33.4403 24.0016 33.4403C26.5058 33.4403 28.9078 32.4479 30.6817 30.6804C32.1161 29.2329 33.0425 27.3592 33.3217 25.3404M14.6816 22.6604C14.9616 20.7004 15.8216 18.8204 17.3216 17.3204C19.0955 15.553 21.4975 14.5605 24.0016 14.5605C26.5058 14.5605 28.9078 15.553 30.6817 17.3204C31.2017 17.8404 31.6217 18.4004 31.9817 18.9804" stroke="#00C2FF" stroke-width="3" stroke-linecap="round" stroke-linejoin="round"/>
<path id="Vector_3" d="M15.6406 34.3592V29.0192H20.9806M32.3606 13.6392V18.9792H27.0206" stroke="#00C2FF" stroke-width="3" stroke-linecap="round" stroke-linejoin="round"/>
</g>
</svg>
