<svg width="48" height="48" viewBox="0 0 48 48" fill="none" xmlns="http://www.w3.org/2000/svg">
<g id="Iconsax/Linear/walletmoney">
<path id="Vector" d="M21.5012 33.72V37.78C21.5012 41.22 18.3012 44 14.3612 44C10.4212 44 7.20117 41.22 7.20117 37.78V33.72C7.20117 37.16 10.4012 39.6 14.3612 39.6C18.3012 39.6 21.5012 37.14 21.5012 33.72Z" stroke="#00C2FF" stroke-width="3" stroke-linecap="round" stroke-linejoin="round"/>
<path id="Vector_2" d="M21.4977 28.2195C21.4977 29.2195 21.2177 30.1395 20.7377 30.9395C19.5577 32.8795 17.1377 34.0995 14.3377 34.0995C11.5377 34.0995 9.11774 32.8595 7.93774 30.9395C7.45773 30.1395 7.17773 29.2195 7.17773 28.2195C7.17773 26.4995 7.97774 24.9595 9.25774 23.8395C10.5577 22.6995 12.3377 22.0195 14.3177 22.0195C16.2977 22.0195 18.0777 22.7195 19.3777 23.8395C20.6977 24.9395 21.4977 26.4995 21.4977 28.2195Z" stroke="#00C2FF" stroke-width="3" stroke-linecap="round" stroke-linejoin="round"/>
<path id="Vector_3" d="M21.5012 28.2206V33.7206C21.5012 37.1606 18.3012 39.6006 14.3612 39.6006C10.4212 39.6006 7.20117 37.1406 7.20117 33.7206V28.2206C7.20117 24.7806 10.4012 22.0006 14.3612 22.0006C16.3412 22.0006 18.1212 22.7006 19.4212 23.8206C20.7012 24.9406 21.5012 26.5006 21.5012 28.2206ZM43.9972 21.9406V26.0606C43.9972 27.1606 43.1172 28.0606 41.9972 28.1006H38.0772C35.9172 28.1006 33.9372 26.5206 33.7572 24.3606C33.6372 23.1006 34.1172 21.9206 34.9572 21.1006C35.6972 20.3406 36.7172 19.9006 37.8372 19.9006H41.9972C43.1172 19.9406 43.9972 20.8406 43.9972 21.9406Z" stroke="#00C2FF" stroke-width="3" stroke-linecap="round" stroke-linejoin="round"/>
<path id="Vector_4" d="M4 21V17C4 11.56 7.28 7.76 12.38 7.12C12.9 7.04 13.44 7 14 7H32C32.52 7 33.02 7.02 33.5 7.1C38.66 7.7 42 11.52 42 17V19.9H37.84C36.72 19.9 35.7 20.34 34.96 21.1C34.12 21.92 33.64 23.1 33.76 24.36C33.94 26.52 35.92 28.1 38.08 28.1H42V31C42 37 38 41 32 41H27" stroke="#00C2FF" stroke-width="3" stroke-linecap="round" stroke-linejoin="round"/>
</g>
</svg>
