<svg width="524" height="524" viewBox="0 0 524 524" fill="none" xmlns="http://www.w3.org/2000/svg">
<path opacity="0.102307" fill-rule="evenodd" clip-rule="evenodd" d="M283.995 491.833C264.264 509.598 233.867 508.005 216.102 488.274L32.1674 283.995C14.4018 264.264 15.9948 233.867 35.7255 216.102L240.005 32.1674C259.736 14.4018 290.133 15.9948 307.898 35.7255L491.833 240.005C509.598 259.736 508.005 290.133 488.274 307.898L283.995 491.833Z" fill="#00C2FF"/>
<path opacity="0.0535017" fill-rule="evenodd" clip-rule="evenodd" d="M177.541 252.579C165.374 263.535 146.629 262.552 135.673 250.385L46.277 151.1C35.3215 138.933 36.3039 120.188 48.4711 109.233L147.756 19.8365C159.923 8.88112 178.668 9.86349 189.623 22.0307L279.02 121.316C289.975 133.483 288.993 152.227 276.826 163.183L177.541 252.579Z" fill="#00C2FF"/>
<path d="M419.078 306.258L393.379 277.686C390.127 274.07 390.418 268.502 394.032 265.246L422.573 239.521C426.192 236.26 431.769 236.553 435.027 240.174L460.725 268.746C463.978 272.363 463.686 277.93 460.073 281.187L431.531 306.911C427.913 310.172 422.335 309.88 419.078 306.258Z" stroke="#BBDEFB" stroke-width="6.40979"/>
</svg>
