<svg width="1360" height="1365" viewBox="0 0 1360 1365" fill="none" xmlns="http://www.w3.org/2000/svg">
<path fill-rule="evenodd" clip-rule="evenodd" d="M837.899 1197.77C793.849 1245.22 720.097 1249.17 671.23 1206.69L105.74 715.173C50.1724 666.874 50.8003 580.388 107.063 532.901L604.075 113.411C652.434 72.5939 724.179 76.3462 768.017 121.985L1232.91 605.967C1276.97 651.839 1277.58 724.121 1234.31 770.737L837.899 1197.77Z" fill="#8AE3FF"/>
<path opacity="0.102307" fill-rule="evenodd" clip-rule="evenodd" d="M311.549 1143.85C336.174 1166.03 374.112 1164.04 396.285 1139.41L625.852 884.451C648.025 859.826 646.037 821.888 621.411 799.715L366.451 570.148C341.826 547.975 303.888 549.963 281.715 574.589L52.1479 829.549C29.9749 854.174 31.9631 892.112 56.5887 914.285L311.549 1143.85Z" fill="#00C2FF"/>
<path opacity="0.0535017" fill-rule="evenodd" clip-rule="evenodd" d="M444.413 845.242C459.599 858.916 482.994 857.689 496.667 842.504L608.242 718.587C621.916 703.401 620.69 680.006 605.504 666.333L481.587 554.758C466.401 541.084 443.006 542.311 429.333 557.496L317.758 681.413C304.085 696.599 305.311 719.994 320.496 733.667L444.413 845.242Z" fill="#00C2FF"/>
<path fill-rule="evenodd" clip-rule="evenodd" d="M471.093 1084.11C484.226 1095.93 504.46 1094.87 516.286 1081.74L610.633 976.954C622.459 963.82 621.398 943.586 608.264 931.761L497.907 832.395C484.774 820.569 464.54 821.63 452.715 834.763L358.367 939.547C346.542 952.68 347.602 972.914 360.736 984.74L471.093 1084.11Z" fill="#BBEFFF"/>
</svg>
