<svg width="99" height="15" viewBox="0 0 99 15" fill="none" xmlns="http://www.w3.org/2000/svg">
<g id="Group 204">
<g id="Group 9">
<ellipse id="Ellipse 1" cx="18.8208" cy="7.43537" rx="7.46119" ry="7.43537" fill="#02005E"/>
<path id="Ellipse 2" d="M11.3855 -0.00013098C10.4057 -0.000130937 9.43546 0.192191 8.53023 0.565853C7.625 0.939515 6.80248 1.4872 6.10965 2.17764C5.41681 2.86808 4.86722 3.68775 4.49226 4.58985C4.11731 5.49195 3.92432 6.45881 3.92432 7.43524C3.92432 8.41166 4.11731 9.37853 4.49227 10.2806C4.86723 11.1827 5.41681 12.0024 6.10965 12.6928C6.80248 13.3833 7.625 13.931 8.53023 14.3046C9.43546 14.6783 10.4057 14.8706 11.3855 14.8706L11.3855 7.43524L11.3855 -0.00013098Z" fill="#02005E"/>
<path id="Subtract" fill-rule="evenodd" clip-rule="evenodd" d="M3.96407 0.929443C3.31063 1.27636 2.71121 1.71914 2.18622 2.24413C1.4931 2.93725 0.943291 3.7601 0.568179 4.6657C0.193067 5.5713 0 6.54191 0 7.52213C0 8.50235 0.193068 9.47296 0.56818 10.3786C0.943292 11.2842 1.4931 12.107 2.18622 12.8001C2.71121 13.3251 3.31063 13.7679 3.96407 14.1148V0.929443Z" fill="#02005E"/>
</g>
<g id="INZIST">
<path d="M32.3696 13.2285V1.65219H33.5438V13.2285H32.3696Z" fill="#02005E"/>
<path d="M38.1352 13.2285V1.65219H39.2267V13.2285H38.1352ZM49.1492 13.2285V1.65219H50.2572V13.2285H49.1492ZM49.05 13.2285L38.5321 2.28062L38.9124 1.65219H39.3259L49.8273 12.6001L49.3642 13.2285H49.05Z" fill="#02005E"/>
<path d="M53.5113 12.3024L63.2519 2.56176H64.8395L55.0493 12.3189L53.5113 12.3024ZM53.5278 2.62791V1.65219H64.8395V2.56176L63.9795 2.62791H53.5278ZM53.5113 13.2285V12.3024L54.4374 12.2528H64.8395V13.2285H53.5113Z" fill="#02005E"/>
<path d="M68.0611 13.2285V1.65219H69.2353V13.2285H68.0611Z" fill="#02005E"/>
<path d="M72.5367 9.68946L73.744 9.49101C73.8542 10.1415 74.1298 10.6872 74.5708 11.1282C75.0229 11.5582 75.6237 11.8834 76.3734 12.104C77.1231 12.3245 77.9996 12.4347 79.0029 12.4347C79.8188 12.4347 80.5244 12.3796 81.1197 12.2693C81.7261 12.1591 82.2277 12.0047 82.6246 11.8063C83.0215 11.6078 83.3137 11.3653 83.5011 11.0786C83.6996 10.792 83.7988 10.4612 83.7988 10.0864C83.7988 9.62331 83.672 9.24846 83.4185 8.96181C83.1649 8.67516 82.7735 8.45465 82.2443 8.3003C81.7151 8.14595 81.0426 8.02468 80.2267 7.93648L77.3988 7.72149C76.7152 7.65534 76.0978 7.55611 75.5466 7.42381C74.9953 7.28049 74.5267 7.09306 74.1409 6.86153C73.766 6.63001 73.4794 6.34336 73.2809 6.00158C73.0825 5.64878 72.9832 5.22431 72.9832 4.72818C72.9832 4.24308 73.099 3.80208 73.3305 3.40518C73.5731 2.99725 73.9314 2.65547 74.4055 2.37985C74.8795 2.09319 75.4639 1.87269 76.1585 1.71834C76.853 1.56399 77.6523 1.48682 78.5564 1.48682C79.8243 1.48682 80.8827 1.62463 81.7316 1.90026C82.5916 2.16486 83.2696 2.55625 83.7657 3.07443C84.2619 3.58158 84.5816 4.21001 84.7249 4.95971L83.5342 5.14162C83.3468 4.27064 82.8507 3.60363 82.0458 3.14058C81.241 2.67752 80.0779 2.446 78.5564 2.446C77.8287 2.446 77.1893 2.50112 76.638 2.61137C76.0978 2.7106 75.6403 2.85944 75.2654 3.05789C74.9016 3.24531 74.626 3.47684 74.4385 3.75247C74.2621 4.01707 74.1739 4.31474 74.1739 4.6455C74.1739 5.11957 74.3118 5.49443 74.5874 5.77005C74.863 6.03465 75.2654 6.23862 75.7946 6.38194C76.3349 6.52527 76.9908 6.64103 77.7626 6.72923L80.6236 6.94422C81.5718 7.05447 82.3711 7.21985 83.0215 7.44035C83.672 7.64983 84.1626 7.95853 84.4934 8.36646C84.8352 8.77438 85.0061 9.32012 85.0061 10.0037C85.0061 10.5549 84.8738 11.0455 84.6092 11.4755C84.3446 11.8945 83.9532 12.2473 83.435 12.5339C82.9278 12.8206 82.2994 13.0356 81.5497 13.1789C80.8 13.3222 79.9456 13.3939 78.9864 13.3939C78.0603 13.3939 77.2224 13.3222 76.4727 13.1789C75.734 13.0245 75.089 12.793 74.5378 12.4843C73.9865 12.1756 73.54 11.7897 73.1982 11.3267C72.8675 10.8636 72.647 10.3179 72.5367 9.68946Z" fill="#02005E"/>
<path d="M92.0542 13.2285V1.93333H93.2283V13.2285H92.0542ZM86.3156 2.62791V1.65219H99V2.62791H86.3156Z" fill="#02005E"/>
</g>
</g>
</svg>
