<svg width="37" height="42" viewBox="0 0 37 42" fill="none" xmlns="http://www.w3.org/2000/svg">
<g id="Group 6">
<g id="Group 4">
<path id="Vector 10 (Stroke)" fill-rule="evenodd" clip-rule="evenodd" d="M18.0359 7.16188L0 3.2392V0L21.0426 4.74376V21.1614L9.25808 29.7991V38.529H34.7763L34.8018 41.5356H6.25144V28.0567L18.0359 19.5366V7.16188Z" fill="#00C2FF"/>
<path id="Vector 14 (Stroke)" d="M31.6831 33.6595V25.6074L34.5242 20.333L31.2627 17.1102H32.7787L36.8427 9.21102L25.5036 3.82202L22.0645 4.79067V8.02622L25.2247 7.03333L32.7662 10.5623L30.9443 14.1036H26.9439V17.1102L30.8678 20.8796L28.6765 24.9194V36.6661H34.728V33.6595H31.6831Z" fill="#00C2FF"/>
</g>
<path id="Subtract" fill-rule="evenodd" clip-rule="evenodd" d="M12.166 32.0284H20.3562L18.5387 34.1448L19.6792 36.6275H26.5461V33.6209H22.9517L24.7691 31.5044L23.6286 29.0217H16.2754L12.166 32.0284Z" fill="#00C2FF"/>
<path id="Subtract_2" fill-rule="evenodd" clip-rule="evenodd" d="M0 7.71366L16.9195 11.3276V7.99082L0 4.32361V7.71366Z" fill="#00C2FF"/>
<path id="Subtract_3" fill-rule="evenodd" clip-rule="evenodd" d="M0 12.1029L16.9195 15.7169V12.3801L0 8.71289V12.1029Z" fill="#00C2FF"/>
<path id="Subtract_4" fill-rule="evenodd" clip-rule="evenodd" d="M15.7898 19.8654L0 16.4927V13.1027L16.9187 16.7697V19.0471L15.7898 19.8654Z" fill="#00C2FF"/>
</g>
</svg>
